<svg xmlns="http://www.w3.org/2000/svg" width="1024" height="1024" viewBox="0 0 1024 1024" role="img" aria-labelledby="title desc">
  <title id="title">Cyber Resistance red shield logo</title>
  <desc id="desc">A flat 2D red cybersecurity shield logo with a dark circuit-route background and network nodes.</desc>

  <defs>
    <radialGradient id="bgGlow" cx="50%" cy="42%" r="72%">
      <stop offset="0%" stop-color="#151018"/>
      <stop offset="55%" stop-color="#090b10"/>
      <stop offset="100%" stop-color="#030408"/>
    </radialGradient>

    <linearGradient id="shieldFill" x1="230" y1="180" x2="795" y2="890" gradientUnits="userSpaceOnUse">
      <stop offset="0%" stop-color="#ff3131"/>
      <stop offset="45%" stop-color="#c90f1f"/>
      <stop offset="100%" stop-color="#690815"/>
    </linearGradient>

    <linearGradient id="innerFill" x1="296" y1="240" x2="730" y2="830" gradientUnits="userSpaceOnUse">
      <stop offset="0%" stop-color="#d71927"/>
      <stop offset="100%" stop-color="#41050d"/>
    </linearGradient>

    <linearGradient id="panelDark" x1="512" y1="230" x2="512" y2="815" gradientUnits="userSpaceOnUse">
      <stop offset="0%" stop-color="#22151b"/>
      <stop offset="100%" stop-color="#0b080c"/>
    </linearGradient>

    <filter id="redGlow" x="-30%" y="-30%" width="160%" height="160%">
      <feGaussianBlur stdDeviation="7" result="blur"/>
      <feColorMatrix in="blur" type="matrix" values="1 0 0 0 0.8  0 0.1 0 0 0  0 0 0.1 0 0  0 0 0 0.7 0" result="glow"/>
      <feMerge>
        <feMergeNode in="glow"/>
        <feMergeNode in="SourceGraphic"/>
      </feMerge>
    </filter>

    <filter id="softGlow" x="-40%" y="-40%" width="180%" height="180%">
      <feGaussianBlur stdDeviation="3" result="blur"/>
      <feMerge>
        <feMergeNode in="blur"/>
        <feMergeNode in="SourceGraphic"/>
      </feMerge>
    </filter>

    <style>
      .route { fill: none; stroke: #a70e1d; stroke-width: 2.5; stroke-linecap: round; stroke-linejoin: round; opacity: .46; }
      .route-thin { fill: none; stroke: #7c101b; stroke-width: 1.6; stroke-linecap: round; stroke-linejoin: round; opacity: .36; }
      .node { fill: #090b10; stroke: #d81828; stroke-width: 3; opacity: .75; }
      .node-hot { fill: #ff2635; stroke: #ff6b6b; stroke-width: 2; filter: url(#softGlow); }
      .trace { fill: none; stroke: #ff4a4a; stroke-width: 5; stroke-linecap: round; stroke-linejoin: round; opacity: .9; }
      .trace-thin { fill: none; stroke: #ff5555; stroke-width: 3; stroke-linecap: round; stroke-linejoin: round; opacity: .78; }
      .trace-dark { fill: none; stroke: #25070c; stroke-width: 10; stroke-linecap: round; stroke-linejoin: round; opacity: .65; }
      .panel-line { fill: none; stroke: #ff6060; stroke-width: 3; opacity: .65; }
      .micro { fill: #ff4747; opacity: .8; }
    </style>
  </defs>

  <!-- Background -->
  <rect width="1024" height="1024" fill="url(#bgGlow)"/>

  <!-- Route-like circuit background -->
  <g id="background-routes">
    <path class="route" d="M-20 124 H140 L178 162 H288 L342 216 H430"/>
    <path class="route-thin" d="M0 175 H75 L128 228 H218 L260 270 H365"/>
    <path class="route" d="M0 278 H190 L230 318 H356"/>
    <path class="route-thin" d="M0 356 H95 L135 396 H245 L292 443 H384"/>
    <path class="route" d="M0 492 H145 L188 535 H328"/>
    <path class="route-thin" d="M0 598 H105 L145 638 H230 L267 675 H392"/>
    <path class="route" d="M-10 713 H130 L166 749 H315"/>
    <path class="route-thin" d="M35 852 H128 L170 810 H280 L325 765 H420"/>

    <circle class="node" cx="430" cy="216" r="8"/>
    <circle class="node-hot" cx="356" cy="318" r="6"/>
    <circle class="node" cx="384" cy="443" r="7"/>
    <circle class="node-hot" cx="328" cy="535" r="6"/>
    <circle class="node" cx="392" cy="675" r="8"/>
    <circle class="node" cx="315" cy="749" r="7"/>
    <circle class="node-hot" cx="420" cy="765" r="5"/>
    <circle class="node" cx="260" cy="270" r="7"/>

    <path class="route" d="M1044 120 H882 L844 158 H736 L685 209 H590"/>
    <path class="route-thin" d="M1024 198 H920 L872 246 H760 L720 286 H625"/>
    <path class="route" d="M1024 320 H855 L815 360 H672"/>
    <path class="route-thin" d="M1024 414 H900 L858 456 H730"/>
    <path class="route" d="M1024 522 H874 L832 564 H690"/>
    <path class="route-thin" d="M1024 631 H910 L870 671 H760 L722 709 H605"/>
    <path class="route" d="M1034 755 H890 L852 717 H724 L680 673 H592"/>
    <path class="route-thin" d="M987 887 H892 L850 845 H742 L700 803 H600"/>

    <circle class="node" cx="590" cy="209" r="8"/>
    <circle class="node-hot" cx="625" cy="286" r="6"/>
    <circle class="node" cx="672" cy="360" r="7"/>
    <circle class="node" cx="730" cy="456" r="8"/>
    <circle class="node-hot" cx="690" cy="564" r="6"/>
    <circle class="node" cx="605" cy="709" r="8"/>
    <circle class="node" cx="592" cy="673" r="7"/>
    <circle class="node-hot" cx="600" cy="803" r="5"/>

    <path class="route-thin" d="M120 48 H225 L253 76 H350"/>
    <path class="route-thin" d="M904 48 H800 L772 76 H674"/>
    <circle class="node" cx="350" cy="76" r="7"/>
    <circle class="node" cx="674" cy="76" r="7"/>

    <path class="route-thin" d="M108 950 H230 L270 910 H380"/>
    <path class="route-thin" d="M916 950 H795 L754 910 H643"/>
    <circle class="node" cx="380" cy="910" r="7"/>
    <circle class="node" cx="643" cy="910" r="7"/>
  </g>

  <!-- Soft halo behind shield -->
  <path d="M512 94 C399 173 310 201 207 210 L207 477 C207 677 324 835 512 936 C700 835 817 677 817 477 L817 210 C714 201 625 173 512 94 Z"
        fill="#ff1f2f" opacity=".12" filter="url(#redGlow)"/>

  <!-- Shield logo -->
  <g id="shield" filter="url(#redGlow)">
    <!-- Outer shape -->
    <path d="M512 120 C409 190 322 218 236 228 L236 474 C236 652 340 799 512 898 C684 799 788 652 788 474 L788 228 C702 218 615 190 512 120 Z"
          fill="url(#shieldFill)" stroke="#ff6b6b" stroke-width="8" stroke-linejoin="round"/>

    <!-- Flat black/red border layer -->
    <path d="M512 156 C424 214 346 241 276 252 L276 472 C276 623 363 753 512 841 C661 753 748 623 748 472 L748 252 C678 241 600 214 512 156 Z"
          fill="#12090d" stroke="#ff2737" stroke-width="5" stroke-linejoin="round"/>

    <!-- Inner red field -->
    <path d="M512 187 C437 235 371 259 312 270 L312 469 C312 600 385 713 512 792 C639 713 712 600 712 469 L712 270 C653 259 587 235 512 187 Z"
          fill="url(#innerFill)" stroke="#ff4f4f" stroke-width="4" stroke-linejoin="round"/>

    <!-- Central dark spine -->
    <path d="M512 188 C492 204 470 219 445 233 L445 740 C466 758 489 775 512 790 C535 775 558 758 579 740 L579 233 C554 219 532 204 512 188 Z"
          fill="url(#panelDark)" opacity=".93"/>
    <path class="panel-line" d="M512 188 V790" opacity=".45"/>

    <!-- Shield panels -->
    <path d="M334 300 L430 251 L430 414 L360 444 L334 416 Z" fill="#8b0b18" opacity=".9" stroke="#ff3c3c" stroke-width="3"/>
    <path d="M690 300 L594 251 L594 414 L664 444 L690 416 Z" fill="#8b0b18" opacity=".9" stroke="#ff3c3c" stroke-width="3"/>
    <path d="M337 504 L436 462 L436 641 L369 691 L337 653 Z" fill="#780914" opacity=".92" stroke="#ff3333" stroke-width="3"/>
    <path d="M687 504 L588 462 L588 641 L655 691 L687 653 Z" fill="#780914" opacity=".92" stroke="#ff3333" stroke-width="3"/>
    <path d="M455 699 L512 739 L569 699 L569 742 C551 758 533 773 512 787 C491 773 473 758 455 742 Z" fill="#b90d1c" stroke="#ff4e4e" stroke-width="3"/>

    <!-- Decorative shadow routes on panels -->
    <path class="trace-dark" d="M340 340 H385 L419 374 V425"/>
    <path class="trace-dark" d="M684 340 H639 L605 374 V425"/>
    <path class="trace-dark" d="M353 572 H412 L438 598"/>
    <path class="trace-dark" d="M671 572 H612 L586 598"/>

    <!-- Circuit traces: left -->
    <path class="trace" d="M350 337 H393 L419 363 V397"/>
    <circle class="node-hot" cx="350" cy="337" r="5"/>
    <circle class="node" cx="419" cy="397" r="6"/>

    <path class="trace-thin" d="M371 405 H398 L438 445"/>
    <circle class="node" cx="371" cy="405" r="5"/>
    <circle class="node-hot" cx="438" cy="445" r="5"/>

    <path class="trace" d="M360 553 H405 L444 592"/>
    <circle class="node-hot" cx="360" cy="553" r="5"/>
    <circle class="node" cx="444" cy="592" r="6"/>

    <path class="trace-thin" d="M395 640 V681 H440"/>
    <circle class="node" cx="395" cy="640" r="5"/>
    <circle class="node-hot" cx="440" cy="681" r="5"/>

    <!-- Circuit traces: right -->
    <path class="trace" d="M674 337 H631 L605 363 V397"/>
    <circle class="node-hot" cx="674" cy="337" r="5"/>
    <circle class="node" cx="605" cy="397" r="6"/>

    <path class="trace-thin" d="M653 405 H626 L586 445"/>
    <circle class="node" cx="653" cy="405" r="5"/>
    <circle class="node-hot" cx="586" cy="445" r="5"/>

    <path class="trace" d="M664 553 H619 L580 592"/>
    <circle class="node-hot" cx="664" cy="553" r="5"/>
    <circle class="node" cx="580" cy="592" r="6"/>

    <path class="trace-thin" d="M629 640 V681 H584"/>
    <circle class="node" cx="629" cy="640" r="5"/>
    <circle class="node-hot" cx="584" cy="681" r="5"/>

    <!-- Vertical center small traces -->
    <path class="trace-thin" d="M482 246 V298"/>
    <path class="trace-thin" d="M542 246 V298"/>
    <path class="trace-thin" d="M487 717 V758"/>
    <path class="trace-thin" d="M537 717 V758"/>
    <circle class="node-hot" cx="482" cy="298" r="5"/>
    <circle class="node-hot" cx="542" cy="298" r="5"/>

    <!-- Central lock circle -->
    <circle cx="512" cy="500" r="112" fill="#1a0c10" stroke="#ff4646" stroke-width="6"/>
    <circle cx="512" cy="500" r="84" fill="#b80d1d" stroke="#ff6464" stroke-width="4"/>
    <circle cx="512" cy="500" r="60" fill="#e81f2d" stroke="#ff8787" stroke-width="3"/>

    <!-- Ring details -->
    <path class="trace-thin" d="M411 500 H454"/>
    <path class="trace-thin" d="M570 500 H613"/>
    <path class="trace-thin" d="M512 399 V437"/>
    <path class="trace-thin" d="M512 563 V601"/>
    <circle class="node-hot" cx="512" cy="399" r="5"/>
    <circle class="node-hot" cx="512" cy="601" r="5"/>

    <!-- Keyhole -->
    <path d="M512 457
             C489 457 471 475 471 498
             C471 513 479 526 491 533
             L476 585
             H548
             L533 533
             C545 526 553 513 553 498
             C553 475 535 457 512 457 Z"
          fill="#09090d" stroke="#ffb1b1" stroke-width="3" stroke-linejoin="round"/>

    <!-- Small tech details -->
    <rect class="micro" x="356" y="280" width="10" height="10" rx="2"/>
    <rect class="micro" x="374" y="280" width="10" height="10" rx="2" opacity=".65"/>
    <rect class="micro" x="392" y="280" width="10" height="10" rx="2" opacity=".45"/>
    <rect class="micro" x="658" y="280" width="10" height="10" rx="2"/>
    <rect class="micro" x="640" y="280" width="10" height="10" rx="2" opacity=".65"/>
    <rect class="micro" x="622" y="280" width="10" height="10" rx="2" opacity=".45"/>

    <rect class="micro" x="345" y="706" width="9" height="9" rx="2" opacity=".6"/>
    <rect class="micro" x="362" y="719" width="9" height="9" rx="2" opacity=".5"/>
    <rect class="micro" x="670" y="706" width="9" height="9" rx="2" opacity=".6"/>
    <rect class="micro" x="653" y="719" width="9" height="9" rx="2" opacity=".5"/>
  </g>
</svg>
